# xmcd
#
# Track frame offsets: 
#        150
#        18205
#        39827
#        57649
#        82102
#        99347
#        146883
#        166873
#        191236
#        228393
#        248939
#        265944
#        288244
#        312824
#        333129
#
# Disc length: 4790 seconds
#
# Revision: 2
# Processed by: cddbd v1.5.2PL0 Copyright (c) Steve Scherf et al.
# Submitted via: ExactAudioCopy v1.0b3
#
DISCID=cd12b40f
DTITLE=Various Artist - The Hard Blues Masters  vol.1
DYEAR=2002
DGENRE=Blues/Rock
TTITLE0=KENNY WAYNE SHEPHERD - Never Mind
TTITLE1=DAVE MENIKETTI - Man's World
TTITLE2=JEFF HEALEY - Which One
TTITLE3=JULIAN SAS - A Light in the Dark
TTITLE4=DAVID GOGO - Movin' On
TTITLE5=RICK DERRINGER - Somebody Loan Me a Dime
TTITLE6=The GALES BROS.memphis - Rockin' Horse Ride
TTITLE7=MIKE ONESKO - Whirlwind
TTITLE8=CRAIG ERICKSON - Understanding
TTITLE9=INDIGENOUS - Got to Tell You
TTITLE10=JON BUTCHER - 20 Years
TTITLE11=LESLIE WEST - Me and My Guitar
TTITLE12=BUDDAHHEADS - Blue Charade
TTITLE13=PAT TRAVERS - The More Things Chance
TTITLE14=WES JEANS - Drownin' on Dry Land
EXTD=
EXTT0=
EXTT1=
EXTT2=
EXTT3=
EXTT4=
EXTT5=
EXTT6=
EXTT7=
EXTT8=
EXTT9=
EXTT10=
EXTT11=
EXTT12=
EXTT13=
EXTT14=
PLAYORDER=
